<svg id="Ebene_1" data-name="Ebene 1" xmlns="http://www.w3.org/2000/svg" viewBox="0 0 1920 1080"><defs><style>.cls-1{fill:#575756;}.cls-2{fill:#f6f7f7;}.cls-3{fill:#dee1e6;}.cls-4{fill:#eda47b;}.cls-5{fill:none;}</style></defs><path class="cls-1" d="M1537.54,297c-26.72,4.38-49.8-3.66-65.51-27.31-14.48-21.78-14.53-45-1.18-67.56s36-31.94,66.74-28.87c8.35-12.29,16.43-24.1,24.35-36,.68-1,.49-2.71.43-4.09-.21-5.19,2.64-8.17,7.67-8.55a13.42,13.42,0,0,0,6.12-2.16c11.81-7.79,23.41-15.9,35.29-23.57,2.46-1.59,3.47-2.91,3.52-5.87.67-35.4,28-62.73,62.81-63.07,34.18-.33,62.09,27,63.07,62.17.11,4,1.74,5.4,4.76,7.34,11.31,7.23,22.26,15,33.44,22.45a17.41,17.41,0,0,0,6.53,2.66c4.66.79,7,3.13,7.45,7.9a14.58,14.58,0,0,0,2.15,6.24c6.1,9.67,12.67,19.06,18.47,28.9,2.19,3.72,3.93,5.29,8.61,4.93,24.34-1.83,44,7.39,57.6,27.56,13.74,20.4,14.58,42.33,3.56,64.27-11.52,22.94-36.87,36.26-62.52,33.3-3.61-.41-4.81.84-6.55,3.72-6.29,10.41-13.19,20.44-19.63,30.75a12.28,12.28,0,0,0-1.8,6.61c.24,5.34-3.39,9-8.77,8.6a9.79,9.79,0,0,0-5.61,1.49c-11.73,7.57-23.18,15.58-35.09,22.86-3.45,2.11-3,4.27-2.79,7.18a62.93,62.93,0,0,1-48,67.16c-42.3,10.12-82.11-24.92-77.24-68.12.38-3.37-.74-4.65-3.38-6.32-11.47-7.3-22.77-14.87-34-22.5-2.26-1.53-3.84-3-7.17-2.07-5.3,1.44-9.33-3.41-8.33-8.94.29-1.57.47-3.67-.32-4.85C1554.24,321.36,1546.11,309.58,1537.54,297Zm202,72.21a140.26,140.26,0,0,0,36.69-24.19,7.78,7.78,0,0,0,2.09-4.55c.52-4.65,2.56-7.4,7.49-7.7,1.32-.08,3.05-.44,3.83-1.34A139.52,139.52,0,0,0,1812,296.83c-33.09-15.93-46.69-32.15-47.19-58.81-.62-33,16.72-53.67,48.52-65-7.6-11.2-14.76-21.88-22.13-32.4-.68-1-2.69-1.46-4.09-1.47-6.28,0-8.72-2.59-8.52-9.05,0-1.26-.26-3-1.1-3.77a137.84,137.84,0,0,0-36.63-24.62c-7.44,32-26.49,52.4-59.55,53.85-36.47,1.61-57.72-19.13-66.49-53.82a140.47,140.47,0,0,0-36.38,24.52,7.13,7.13,0,0,0-1.7,4.63c-.21,5.54-2.43,8-7.83,8.3-1.33.07-3.17.16-3.88,1a139,139,0,0,0-21.69,34.47c26.61,10.41,42.64,29.06,43.83,57.42,1.3,31.34-15.11,52-43.83,63.63a141.46,141.46,0,0,0,22.3,35.05c1,1.17,3.33,1.13,4.61,2.18a42.36,42.36,0,0,1,6.38,6.39c1.46,1.83,1.94,4.49,3.53,6.14a52.23,52.23,0,0,0,8.78,7.33c8.87,5.83,17.91,11.39,27.12,17.21,10.54-30,29.92-47.56,60.88-48C1708.89,321.64,1728.93,339.32,1739.57,369.25ZM1619,384.73a59,59,0,1,0,117.9-.48c-.12-32.06-26.8-58.38-59.22-58.4C1645.59,325.83,1619.08,352.44,1619,384.73ZM1583.28,235.5a58.89,58.89,0,1,0-117.77-.71c-.25,32.19,26.19,59,58.33,59.22A58.72,58.72,0,0,0,1583.28,235.5Zm35.77-142.89c-.3,32.06,25.81,58.93,57.64,59.31a59.11,59.11,0,0,0,60.25-58.41c.37-32-26.14-59-58.25-59.39A59.16,59.16,0,0,0,1619.05,92.61ZM1768.8,235a58.92,58.92,0,0,0,117.83.29c.18-32.07-26.31-58.79-58.56-59.07C1795.6,175.93,1768.94,202.37,1768.8,235Z"/><path class="cls-2" d="M1619,384.73c0-32.29,26.55-58.9,58.68-58.88,32.42,0,59.1,26.34,59.22,58.4a59,59,0,1,1-117.9.48Zm107.2-.84c1.48-24.09-22.51-47.13-46.8-47.68-28-.64-50.71,22.49-50.35,48.15.39,28,20.08,48.73,47.88,49.05C1705.22,433.72,1725.89,413.56,1726.24,383.89Z"/><path class="cls-2" d="M1583.28,235.5A58.72,58.72,0,0,1,1523.84,294c-32.14-.18-58.58-27-58.33-59.22a58.89,58.89,0,1,1,117.77.71Zm-59.47-48.6c-25-1.78-48.49,22.72-48,47.79.5,28.42,21.73,49.92,50.42,49.14A47.86,47.86,0,0,0,1573.1,237C1573.87,207.9,1550.25,185.43,1523.81,186.9Z"/><path class="cls-2" d="M1619.05,92.61a59.16,59.16,0,0,1,59.64-58.49c32.11.34,58.62,27.38,58.25,59.39a59.11,59.11,0,0,1-60.25,58.41C1644.86,151.54,1618.75,124.67,1619.05,92.61Zm59.32-47.74c-27.65-2-49.73,23.55-49.37,48.24.4,27.86,22,49.44,50,48.76A48.51,48.51,0,0,0,1726.36,95C1727.48,67.14,1704.77,44.17,1678.37,44.87Z"/><path class="cls-2" d="M1768.8,235c.14-32.63,26.8-59.07,59.27-58.78,32.25.28,58.74,27,58.56,59.07A58.92,58.92,0,0,1,1768.8,235Zm107.13-.78c-.23-27.07-21-47.79-47.93-47.9-27.43-.1-48.77,19.41-49.2,49.56-.36,24.95,20.76,48.61,47.77,47.93C1855.19,283.08,1875.4,265.44,1875.93,234.22Z"/><path class="cls-1" d="M1694.51,278.48c.38,2.63,1,4.6.88,6.55-.18,5,2.14,6.61,7,6.14,1.56-.15,3.27,1.27,4.91,2-1.63.69-3.25,2-4.89,2q-24.55.22-49.13,0c-1.49,0-3-1.2-4.47-1.84,1.41-.74,2.76-1.89,4.25-2.12,2.29-.37,4.68-.1,7.66-.1.61-4.08,1.2-7.94,1.85-12.28-2-.12-3.51-.3-5.07-.3-10.74,0-21.48,0-32.21,0-7.79,0-13.67-5.43-13.73-13.35q-.27-33.57,0-67.14c.06-7.69,5.5-13.2,13.17-13.23q53.49-.21,107,0c7.21,0,12.68,5.6,12.76,13.07q.35,33.57,0,67.14c-.1,8.26-5.75,13.32-14.17,13.45-10,.16-20,0-30,0Zm45.82-23.66c0-19.69.17-38.58-.1-57.46-.08-5.44-4.37-8.49-10.71-8.49q-51.33-.06-102.65,0c-7.94,0-11.23,3.37-11.25,11.36,0,16.19.18,32.4-.12,48.59-.08,4.84,1.32,6.12,6.13,6.09,37.67-.2,75.35-.1,113-.1ZM1616,259.29c-1,11.92,1.88,15,13.22,15q49.33,0,98.68,0c10.31,0,13.86-4.44,11.87-15Zm49.13,31.44h27c-.63-4.26-1.2-8.12-1.76-11.94h-23.51C1666.21,282.8,1665.68,286.54,1665.08,290.73Z"/><path class="cls-3" d="M1726.24,383.89c-.35,29.67-21,49.83-49.27,49.52-27.8-.32-47.49-21-47.88-49.05-.36-25.66,22.3-48.79,50.35-48.15C1703.73,336.76,1727.72,359.8,1726.24,383.89Zm-57.07,22.9c.09,2.09-.29,4.06.38,5.57s2.38,3.76,3.7,3.81c8.71.34,17.45.16,26.18.18,3.1,0,4-1.65,2.81-4.21-5.42-11.32-3.11-22.57-.41-34.05a24.56,24.56,0,0,0-17.26-29.34,25.83,25.83,0,0,0-31.53,15.6c-1.72,4.55-4,8.89-5.65,13.44-.55,1.49-.7,4.33.13,4.92,5.62,4,6,10.86,7.33,16.18,1.72,6.68,4.44,8.31,10.33,7.68A25.16,25.16,0,0,1,1669.17,406.79Z"/><path class="cls-3" d="M1523.81,186.9c26.44-1.47,50.06,21,49.29,50.1a47.86,47.86,0,0,1-46.92,46.83c-28.69.78-49.92-20.72-50.42-49.14C1475.32,209.62,1498.76,185.12,1523.81,186.9Zm-21.51,42.15q2.17,14.74,4.34,29.51c.41,1.58.28,3.83,1.3,4.63,8.56,6.8,19.93,5.39,27.17-4.77a101.69,101.69,0,0,0,13.47-25.9c4.56-13.43-5.27-28.14-18.88-30.47-14.6-2.5-28.48,7.67-29.63,22C1499.94,225.62,1501.51,227.36,1502.3,229.05Z"/><path class="cls-3" d="M1678.37,44.87c26.4-.7,49.11,22.27,48,50.14A48.51,48.51,0,0,1,1679,141.87c-28,.68-49.55-20.9-50-48.76C1628.64,68.42,1650.72,42.83,1678.37,44.87Zm30.8,44.4a59.24,59.24,0,0,0,3.87-5.86c.47-.9.09-2.23.09-3.37-1.08.33-2.5.32-3.17,1a70.49,70.49,0,0,0-4.66,6.12l-4.79-3a52.89,52.89,0,0,0,2.87-6.39c.28-.93-.41-2.16-.67-3.25-1,.56-2.31.88-2.87,1.72a64.65,64.65,0,0,0-3.41,6.42l-5.41-2a67.79,67.79,0,0,0,2.15-7.13c.13-.72-.74-1.9-1.48-2.4-.33-.23-1.7.47-2.14,1.09a11,11,0,0,0-1.15,3c-.78,2.35-.93,5-4.8,4.42s-2.47-3.22-2.93-5.32a29.51,29.51,0,0,0-1.81-4.53c-.68,1.61-2,3.27-1.94,4.83.36,5.24-2.31,5.66-6.39,4.79a40.35,40.35,0,0,0-2.07-5.78c-.56-1.06-1.85-1.74-2.82-2.58-.34,1.2-1.1,2.47-.94,3.6a45.56,45.56,0,0,0,1.86,6.44L1661,82.42c-1.3-2.44-2.28-4.6-3.56-6.55-.47-.71-1.67-1-2.53-1.4-.31,1.06-1.11,2.27-.83,3.14a57.29,57.29,0,0,0,3,6.67l-4.91,2.8a68.8,68.8,0,0,0-4.5-5.82c-.7-.74-2.05-.87-3.1-1.27,0,1.24-.41,2.69.08,3.69a47.86,47.86,0,0,0,3.66,5.57l-3.66,4.28c14.67,18.94,55.28,18.73,68.25-.18Zm-30.93,28.27c4.86-.92,9.7-1.66,14.44-2.84,1.12-.28,1.87-2,2.79-3.08-1.25-.28-2.67-1.08-3.75-.76a43.48,43.48,0,0,1-26.3,0c-1-.32-2.43.6-3.66,1,.83,1,1.5,2.6,2.52,2.86C1668.83,115.83,1673.48,116.6,1678.24,117.54Z"/><path class="cls-3" d="M1875.93,234.22c-.53,31.22-20.74,48.86-49.36,49.59-27,.68-48.13-23-47.77-47.93.43-30.15,21.77-49.66,49.2-49.56C1854.93,186.43,1875.7,207.15,1875.93,234.22Zm-59,1.24c-3.82-3.89-7.58-5.44-11.3-1.7s-1.19,7.36.81,10.86c3.88,6.78,7.63,13.63,11.69,20.29,1.12,1.83,3.06,4.25,4.81,4.42a113.68,113.68,0,0,0,17.41.07c1.52-.08,3.76-1.47,4.27-2.8a228.87,228.87,0,0,0,8.21-24c1.15-4.38-1.48-7.92-5.93-9.85-5.68-2.47-11.25-5.23-17-7.94,0-2.29,0-4.65,0-7,.08-4.47-1.81-7.69-6.47-7.72s-6.57,3.09-6.51,7.63C1817,223.31,1817,228.89,1817,235.46Zm23.7-18.31,1.36.13c.74-1.33,2-2.62,2.14-4,.68-10.37-9.47-19.87-20.91-19.78-11.08.09-21.63,10.2-20.86,20.18.09,1.1,1.21,2.13,2.36,4,3.81-14.14,8.75-19.83,17.57-19.94C1834.88,197.61,1840.27,205,1840.67,217.15Zm-16.45-15.84c-7.36-.49-14.72,5.56-15.13,12.63-.07,1.21.83,2.47,1.28,3.7.87-.88,2.17-1.62,2.54-2.68,2.32-6.77,5.43-9.76,10.76-9.46,5.87.33,9.13,3.66,10.23,9.42.2,1,1.66,1.81,2.53,2.71.46-1.23,1.36-2.49,1.31-3.7C1837.44,207.52,1831.15,201.76,1824.22,201.31Z"/><path class="cls-3" d="M1616,259.29h123.77c2,10.6-1.56,15-11.87,15q-49.33,0-98.68,0C1617.83,274.34,1614.92,271.21,1616,259.29Zm62,12.86c1.76-2.86,3.38-4.34,3.32-5.76,0-1.14-2.13-3.05-3.29-3.05s-3.27,1.9-3.32,3.05C1674.59,267.8,1676.21,269.29,1678,272.15Z"/><path class="cls-3" d="M1665.08,290.73c.6-4.19,1.13-7.93,1.7-11.94h23.51c.56,3.82,1.13,7.68,1.76,11.94Z"/><path class="cls-1" d="M1669.17,406.79a25.16,25.16,0,0,0-4-.22c-5.89.63-8.61-1-10.33-7.68-1.37-5.32-1.71-12.18-7.33-16.18-.83-.59-.68-3.43-.13-4.92,1.67-4.55,3.93-8.89,5.65-13.44a25.83,25.83,0,0,1,31.53-15.6,24.56,24.56,0,0,1,17.26,29.34c-2.7,11.48-5,22.73.41,34.05,1.22,2.56.29,4.22-2.81,4.21-8.73,0-17.47.16-26.18-.18-1.32-.05-3-2.25-3.7-3.81S1669.26,408.88,1669.17,406.79Zm29.24,5.24c-5.43-10.37-4.24-20.33-1.51-30.32.38-1.4.62-2.84.91-4.27,2.26-11.13-3.18-20.77-13.84-24.5-9.79-3.43-21.37,1-26,10.5-2.61,5.4-4.36,11.21-6.5,16.81l5.88,1.3-1.73,1.18c1.45,6.41,2.9,12.81,4.51,19.9,3.53,0,7.63-1.16,10.15.34s3.09,5.61,4.77,9.06Z"/><path class="cls-2" d="M1506.64,258.56q-2.17-14.76-4.34-29.51c.67-2.17,1.49-4.3,2-6.51,2.59-11.59,14.33-19.09,25.56-16.26,11.48,2.89,18.82,15,14.51,26.21a104.49,104.49,0,0,1-13.19,24.12c-5.83,7.92-12.5,8.26-21.07,3.35A26.9,26.9,0,0,0,1506.64,258.56Zm9.24-16.24,2.32,2.19a6.37,6.37,0,0,0-.14,2.15c.52,1.67,1.25,3.28,1.89,4.91.71-1.41,1.89-2.78,2-4.25.42-4,2.54-5.31,6.4-5.84,7.34-1,12-8.25,10.93-16.23a14.83,14.83,0,0,0-15.56-12.95c-7.31.51-13.84,6.87-13.77,13.66a6.4,6.4,0,0,0,1.71,3.47c1.47,1.76,4.1,3.14,4.48,5,.23,1.19-2.79,3-4.29,4.57a23.27,23.27,0,0,0-1.77,2.29c.85.53,1.65,1.36,2.56,1.5A10.11,10.11,0,0,0,1515.88,242.32Z"/><path class="cls-1" d="M1506.64,258.56a26.9,26.9,0,0,1,3.46,1.4c8.57,4.91,15.24,4.57,21.07-3.35a104.49,104.49,0,0,0,13.19-24.12c4.31-11.17-3-23.32-14.51-26.21-11.23-2.83-23,4.67-25.56,16.26-.5,2.21-1.32,4.34-2,6.51-.79-1.69-2.36-3.43-2.23-5,1.15-14.29,15-24.46,29.63-22,13.61,2.33,23.44,17,18.88,30.47a101.69,101.69,0,0,1-13.47,25.9c-7.24,10.16-18.61,11.57-27.17,4.77C1506.92,262.39,1507.05,260.14,1506.64,258.56Z"/><path class="cls-1" d="M1709.17,89.27l3.71,4.08c-13,18.91-53.58,19.12-68.25.18l3.66-4.28a47.86,47.86,0,0,1-3.66-5.57c-.49-1-.08-2.45-.08-3.69,1,.4,2.4.53,3.1,1.27a68.8,68.8,0,0,1,4.5,5.82l4.91-2.8a57.29,57.29,0,0,1-3-6.67c-.28-.87.52-2.08.83-3.14.86.45,2.06.69,2.53,1.4,1.28,1.95,2.26,4.11,3.56,6.55l5.58-1.32a45.56,45.56,0,0,1-1.86-6.44c-.16-1.13.6-2.4.94-3.6,1,.84,2.26,1.52,2.82,2.58a40.35,40.35,0,0,1,2.07,5.78c4.08.87,6.75.45,6.39-4.79-.1-1.56,1.26-3.22,1.94-4.83a29.51,29.51,0,0,1,1.81,4.53c.46,2.1-.84,4.75,2.93,5.32s4-2.07,4.8-4.42a11,11,0,0,1,1.15-3c.44-.62,1.81-1.32,2.14-1.09.74.5,1.61,1.68,1.48,2.4a67.79,67.79,0,0,1-2.15,7.13l5.41,2a64.65,64.65,0,0,1,3.41-6.42c.56-.84,1.89-1.16,2.87-1.72.26,1.09,1,2.32.67,3.25a52.89,52.89,0,0,1-2.87,6.39l4.79,3a70.49,70.49,0,0,1,4.66-6.12c.67-.71,2.09-.7,3.17-1,0,1.14.38,2.47-.09,3.37A59.24,59.24,0,0,1,1709.17,89.27Zm-38.51-3.79c-8-.67-13.88,3.86-21.41,8.64,6.34,3,11.59,5.59,17,7.88,1.66.71,3.7.56,5.56.8l13.93.27c7.94-1,14.83-4.4,21.61-9.27a45.69,45.69,0,0,0-22.61-9.92Z"/><path class="cls-1" d="M1678.24,117.54c-4.76-.94-9.41-1.71-14-2.87-1-.26-1.69-1.87-2.52-2.86,1.23-.35,2.64-1.27,3.66-1a43.48,43.48,0,0,0,26.3,0c1.08-.32,2.5.48,3.75.76-.92,1.06-1.67,2.8-2.79,3.08C1687.94,115.88,1683.1,116.62,1678.24,117.54Z"/><path class="cls-1" d="M1817,235.46c0-6.57.07-12.15,0-17.72-.06-4.54,1.87-7.65,6.51-7.63s6.55,3.25,6.47,7.72c0,2.36,0,4.72,0,7,5.77,2.71,11.34,5.47,17,7.94,4.45,1.93,7.08,5.47,5.93,9.85a228.87,228.87,0,0,1-8.21,24c-.51,1.33-2.75,2.72-4.27,2.8a113.68,113.68,0,0,1-17.41-.07c-1.75-.17-3.69-2.59-4.81-4.42-4.06-6.66-7.81-13.51-11.69-20.29-2-3.5-4.52-7.13-.81-10.86S1813.15,231.57,1817,235.46Zm14.9-3.84c-.12-.34-.23-.69-.35-1l-4.57,2a30.84,30.84,0,0,1-1.15-5c-.18-3.08.21-6.2-.15-9.25-.17-1.42-1.53-2.69-2.34-4a26,26,0,0,0-2.15,4.28,13.36,13.36,0,0,0-.08,3.8c0,6.72.09,13.44,0,20.16,0,1.24-1,2.46-1.49,3.7-1.09-.78-2.43-1.36-3.21-2.37-1.21-1.56-1.8-3.62-3.09-5.09-1-1.14-2.67-1.68-4-2.49,0,1.6-.52,3.51.15,4.77,3.76,7,7.77,13.95,11.8,20.84.58,1,1.73,2.28,2.67,2.32,5.44.22,10.9.22,16.34,0,.9,0,2.14-1.38,2.55-2.4a160.18,160.18,0,0,0,5.74-15.79c.63-2.25.69-5.75-.62-7.24-2.31-2.61-5.74-4.42-9-6C1836.79,231.82,1834.21,232,1831.87,231.62Z"/><path class="cls-1" d="M1840.67,217.15c-.4-12.11-5.79-19.54-18.34-19.38-8.82.11-13.76,5.8-17.57,19.94-1.15-1.89-2.27-2.92-2.36-4-.77-10,9.78-20.09,20.86-20.18,11.44-.09,21.59,9.41,20.91,19.78-.09,1.37-1.4,2.66-2.14,4Z"/><path class="cls-1" d="M1824.22,201.31c6.93.45,13.22,6.21,13.52,12.62,0,1.21-.85,2.47-1.31,3.7-.87-.9-2.33-1.68-2.53-2.71-1.1-5.76-4.36-9.09-10.23-9.42-5.33-.3-8.44,2.69-10.76,9.46-.37,1.06-1.67,1.8-2.54,2.68-.45-1.23-1.35-2.49-1.28-3.7C1809.5,206.87,1816.86,200.82,1824.22,201.31Z"/><path class="cls-4" d="M1740.23,197.36c-.08-5.44-4.37-8.49-10.71-8.49q-51.33-.06-102.65,0c-7.94,0-11.23,3.37-11.25,11.36,0,16.19.18,32.4-.12,48.59-.08,4.84,1.32,6.12,6.13,6.09,37.67-.2,75.35-.1,113-.1h5.68C1740.33,235.13,1740.5,216.24,1740.23,197.36Zm-50.06,27.92,3.7-6.36c1,1.3,2.62,2.53,2.79,3.93C1697.11,226.6,1694.81,226.91,1690.17,225.28Zm-9.71.8v-6.82h6.39v6.82Zm6.15,4.88-4.91,9-1.25-.44V231Zm-5.9-27.54,6.07,10.46C1679.74,215.51,1679.34,214.83,1680.71,203.42Zm-21.35,19c.21-1.26,1.8-2.3,2.77-3.45l3.43,6.51C1660.38,227.16,1658.82,225.66,1659.36,222.38Zm9.37,3.67c-.11-2.16-.2-4.22-.33-6.85h7.23v6.85Zm6.87,4.82v8.77l-1.22.5-5.41-9.27Zm-6.52-16.72,5.49-10.48C1677.59,213.22,1676.36,215.51,1669.08,214.15Z"/><path class="cls-1" d="M1678,272.15c-1.74-2.86-3.36-4.35-3.29-5.76,0-1.15,2.13-3,3.32-3.05s3.24,1.91,3.29,3.05C1681.33,267.81,1679.71,269.29,1678,272.15Z"/><path class="cls-2" d="M1698.41,412h-23.32c-1.68-3.45-2.39-7.65-4.77-9.06s-6.62-.34-10.15-.34c-1.61-7.09-3.06-13.49-4.51-19.9l1.73-1.18-5.88-1.3c2.14-5.6,3.89-11.41,6.5-16.81,4.59-9.47,16.17-13.93,26-10.5,10.66,3.73,16.1,13.37,13.84,24.5-.29,1.43-.53,2.87-.91,4.27C1694.17,391.7,1693,401.66,1698.41,412Zm-12.81-25c2.1-2.67,3.61-4.51,5-6.42.62-.84,1.49-1.83,1.48-2.74-.1-4.43.6-9-2.12-13.09-1.66-2.52-13.46-8.09-16.21-6.78-4.66,2.21-9,5.06-11.29,9.88-.64,1.35-.09,4.42,1,5.21,3,2.15,6.52,4.88,9.85,4.9,5.76,0,7.17,3,8,7.48A7.51,7.51,0,0,0,1682,387Z"/><path class="cls-1" d="M1515.88,242.32a10.11,10.11,0,0,1-3.2.5c-.91-.14-1.71-1-2.56-1.5a23.27,23.27,0,0,1,1.77-2.29c1.5-1.58,4.52-3.38,4.29-4.57-.38-1.89-3-3.27-4.48-5A6.4,6.4,0,0,1,1510,226c-.07-6.79,6.46-13.15,13.77-13.66a14.83,14.83,0,0,1,15.56,12.95c1,8-3.59,15.24-10.93,16.23-3.86.53-6,1.81-6.4,5.84-.15,1.47-1.33,2.84-2,4.25-.64-1.63-1.37-3.24-1.89-4.91a6.37,6.37,0,0,1,.14-2.15q.9-2.14,1.82-4.27l-1-.49Zm13.68-10.89-1.77-.06c-5.12-8.52-6.19-9-9.46-5.89.89,5.49,1.61,10,2.26,14,1.7-.46,4.08-1.23,6.52-1.74,6-1.26,9.25-6.36,8.07-12.68-1-5.49-6.56-9.54-12.1-8.44-2.11.42-4,1.82-6,2.78l.41,1.57c5.06-.57,9.93-.45,12,5C1530.08,227.57,1529.56,229.6,1529.56,231.43Z"/><path class="cls-3" d="M1515.88,242.32l3.19-2.57,1,.49q-.91,2.13-1.82,4.27Z"/><path class="cls-4" d="M1685.72,103.07l-13.93-.27c-4.72-5.49-5-11.27-1.13-17.32l14.06-1.6c3.14,3.42,6.09,7,4.55,12.07C1688.5,98.45,1686.93,100.71,1685.72,103.07Zm-2.29-9.28c-2.14-1.59-3.37-3.18-4.71-3.27-1-.08-3.13,1.92-3,2.73.2,1.36,1.67,3.34,2.84,3.52S1681.19,95.25,1683.43,93.79Z"/><path class="cls-2" d="M1685.72,103.07c1.21-2.36,2.78-4.62,3.55-7.12,1.54-5-1.41-8.65-4.55-12.07a45.69,45.69,0,0,1,22.61,9.92C1700.55,98.67,1693.66,102.05,1685.72,103.07Z"/><path class="cls-2" d="M1670.66,85.48c-3.85,6-3.59,11.83,1.13,17.32-1.86-.24-3.9-.09-5.56-.8-5.39-2.29-10.64-4.9-17-7.88C1656.78,89.34,1662.66,84.81,1670.66,85.48Z"/><path class="cls-2" d="M1831.87,231.62c2.34.36,4.92.2,7,1.17,3.24,1.54,6.67,3.35,9,6,1.31,1.49,1.25,5,.62,7.24a160.18,160.18,0,0,1-5.74,15.79c-.41,1-1.65,2.37-2.55,2.4-5.44.23-10.9.23-16.34,0-.94,0-2.09-1.33-2.67-2.32-4-6.89-8-13.8-11.8-20.84-.67-1.26-.13-3.17-.15-4.77,1.38.81,3,1.35,4,2.49,1.29,1.47,1.88,3.53,3.09,5.09.78,1,2.12,1.59,3.21,2.37.52-1.24,1.46-2.46,1.49-3.7.14-6.72.06-13.44,0-20.16a13.36,13.36,0,0,1,.08-3.8,26,26,0,0,1,2.15-4.28c.81,1.35,2.17,2.62,2.34,4,.36,3.05,0,6.17.15,9.25a30.84,30.84,0,0,0,1.15,5l4.57-2C1831.64,230.93,1831.75,231.28,1831.87,231.62Z"/><path class="cls-4" d="M1668.4,219.2h7.23v6.85h-6.9Z"/><path class="cls-4" d="M1669.08,214.15l5.49-10.48C1677.59,213.22,1676.36,215.51,1669.08,214.15Z"/><path class="cls-4" d="M1680.46,219.26h6.39v6.82h-6.39Z"/><path class="cls-4" d="M1686.78,213.88c-7,1.63-7.44,1-6.07-10.46Z"/><path class="cls-4" d="M1669,230.87h6.63v8.77l-1.22.5Z"/><path class="cls-4" d="M1690.17,225.28l3.7-6.36c1,1.3,2.62,2.53,2.79,3.93C1697.11,226.6,1694.81,226.91,1690.17,225.28Z"/><path class="cls-4" d="M1665.56,225.44c-5.18,1.72-6.74.22-6.2-3.06.21-1.26,1.8-2.3,2.77-3.45Z"/><path class="cls-4" d="M1686.61,231l-4.91,9-1.25-.44V231Z"/><path class="cls-4" d="M1685.6,387H1682a7.51,7.51,0,0,1-.73-1.56c-.78-4.48-2.19-7.45-8-7.48-3.33,0-6.88-2.75-9.85-4.9-1.09-.79-1.64-3.86-1-5.21,2.25-4.82,6.63-7.67,11.29-9.88,2.75-1.31,14.55,4.26,16.21,6.78,2.72,4.13,2,8.66,2.12,13.09,0,.91-.86,1.9-1.48,2.74C1689.21,382.52,1687.7,384.36,1685.6,387Z"/><path class="cls-3" d="M1529.56,231.43c0-1.83.52-3.86-.09-5.47-2.09-5.48-7-5.6-12-5l-.41-1.57c2-1,3.93-2.36,6-2.78,5.54-1.1,11.07,2.95,12.1,8.44,1.18,6.32-2.12,11.42-8.07,12.68-2.44.51-4.82,1.28-6.52,1.74-.65-4-1.37-8.47-2.26-14,3.27-3.09,4.34-2.63,9.46,5.89Z"/><path class="cls-1" d="M1683.43,93.79c-2.24,1.46-3.7,3.16-4.88,3s-2.64-2.16-2.84-3.52c-.12-.81,2-2.81,3-2.73C1680.06,90.61,1681.29,92.2,1683.43,93.79Z"/><rect class="cls-5" width="1920" height="1080"/></svg>